<svg width="33" height="39" viewBox="0 0 33 39" fill="none" xmlns="http://www.w3.org/2000/svg">
<g id="Emoji">
<path id="Vector" d="M24.6095 22.1545C24.457 21.8277 24.2504 21.5238 24.0046 21.2577L24.0922 19.8467L16.5819 17.0555L15.9204 17.9758C15.4491 17.9055 14.8092 17.9856 14.3659 18.1745L12.3239 13.2243C11.4317 13.2872 10.6153 13.8585 10.2895 14.7541L9.96138 15.6563L4.77833 18.2041L4.04548 20.2658L9.76087 33.7612C9.76087 33.7612 24.8709 22.9892 24.8842 23.0259C24.8414 22.772 24.6443 22.1906 24.6095 22.1545Z" fill="#EF9645"/>
<g id="Group">
<path id="Vector_2" d="M22.691 20.3758L16.5063 18.1263C16.3109 18.0552 16.1129 18.0056 15.9151 17.9762L15.9415 17.69L17.1259 4.85795C17.1259 4.85795 17.4039 2.87663 19.3839 3.1552C21.3643 3.43284 21.0867 5.41322 21.0867 5.41322L20.0428 17.344C20.4537 17.519 20.8463 17.7033 21.2326 17.8906L26.7625 8.71623C26.7625 8.71623 27.6198 6.90941 29.4279 7.76603C31.2347 8.62325 30.3775 10.4301 30.3775 10.4301L24.6219 20.213L24.0061 21.2595C23.6504 20.8801 23.2135 20.5658 22.691 20.3758ZM8.6531 13.1418L8.81098 13.1992C9.8062 13.5612 10.3183 14.6605 9.95633 15.6557L8.53235 19.5707C8.17038 20.566 7.07172 21.0794 6.07651 20.7174L5.91863 20.66C4.92341 20.298 4.4113 19.1987 4.77328 18.2035L6.19725 14.2884C6.55923 13.2932 7.65788 12.7798 8.6531 13.1418ZM14.1427 18.2882L14.0688 18.3273C13.4426 18.6624 12.9238 19.1994 12.6616 19.9202C12.6401 19.9794 12.6318 20.0403 12.6153 20.1002C12.4249 20.7524 12.4631 21.4197 12.6931 22.0162C12.5823 22.1132 12.4568 22.1889 12.329 22.2594C11.8425 22.5262 11.2575 22.6018 10.6964 22.3977C9.65891 22.0204 9.12314 20.8721 9.50049 19.8346L11.5513 14.1959C11.7021 13.7815 11.9783 13.4521 12.3189 13.2237C12.8308 12.8811 13.4905 12.7731 14.1145 13C15.152 13.3774 15.6878 14.5257 15.3104 15.5632L14.3609 18.1739C14.2848 18.2047 14.2164 18.2522 14.1427 18.2882Z" fill="#FFDC5D"/>
<path id="Vector_3" d="M5.71412 21.6497C6.67645 21.9997 7.70297 21.8133 8.46843 21.2447C8.52147 21.4588 8.60484 21.6625 8.70359 21.8591C9.4361 23.312 11.198 23.8773 12.649 23.2026C12.8438 23.1117 13.038 23.0196 13.2096 22.8872L13.2078 22.8834C13.3574 23.0602 13.5158 23.4232 14.4556 23.765L16.8398 24.6322C16.3967 24.7679 15.9615 24.9756 15.5357 25.2219C13.8802 26.1808 12.4113 27.9227 11.593 30.1725C11.4987 30.4319 11.6326 30.7189 11.892 30.8133C12.1514 30.9076 12.4385 30.7737 12.5328 30.5143C13.4037 28.1198 15.0634 26.3537 16.8175 25.6882C17.7211 25.3454 18.6479 25.2898 19.5069 25.6022C20.1499 25.9202 20.6446 24.952 19.9661 24.7052L14.7974 22.8252C13.7599 22.4479 13.2241 21.2996 13.6015 20.2621C13.9788 19.2246 15.1271 18.6888 16.1646 19.0662L23.6828 21.8006C24.4891 22.0939 25.0391 22.9281 24.9969 23.7843L24.7931 27.5249C24.7753 27.8749 24.6037 29.4469 24.4304 29.7244C22.7866 34.2438 16.6644 37.3375 11.2936 35.384C5.15038 33.1496 1.95102 26.4197 4.04036 20.2599L4.0501 20.274C4.38198 20.8683 4.9078 21.3564 5.59759 21.6073L5.71412 21.6497Z" fill="#FFDC5D"/>
</g>
</g>
</svg>
