<svg xmlns="http://www.w3.org/2000/svg" viewBox="0 0 64 64"><title>Artboard-26</title><g id="Star"><path d="M58,10H56a1,1,0,0,0-1,1v3a1.986,1.986,0,0,1-.587,1.413A2.031,2.031,0,0,1,52.852,16,2.13,2.13,0,0,1,51,13.831V11a1,1,0,0,0-1-1H42a1,1,0,0,0-1,1v3a1.986,1.986,0,0,1-.587,1.413A2.033,2.033,0,0,1,38.852,16,2.13,2.13,0,0,1,37,13.831V11a1,1,0,0,0-1-1H28a1,1,0,0,0-1,1v3a1.986,1.986,0,0,1-.587,1.413A2.033,2.033,0,0,1,24.852,16,2.13,2.13,0,0,1,23,13.831V11a1,1,0,0,0-1-1H14a1,1,0,0,0-1,1v3a1.986,1.986,0,0,1-.587,1.413A2.033,2.033,0,0,1,10.852,16,2.13,2.13,0,0,1,9,13.831V11a1,1,0,0,0-1-1H6a6.006,6.006,0,0,0-6,6V54a6.006,6.006,0,0,0,6,6H58a6.006,6.006,0,0,0,6-6V16A6.006,6.006,0,0,0,58,10Z" style="fill:#e6edff"/><path d="M58,10H56a1,1,0,0,0-1,1v3a1.986,1.986,0,0,1-.587,1.413A2.031,2.031,0,0,1,52.852,16,2.13,2.13,0,0,1,51,13.831V11a1,1,0,0,0-1-1H42a1,1,0,0,0-1,1v3a1.986,1.986,0,0,1-.587,1.413A2.033,2.033,0,0,1,38.852,16,2.13,2.13,0,0,1,37,13.831V11a1,1,0,0,0-1-1H28a1,1,0,0,0-1,1v3a1.986,1.986,0,0,1-.587,1.413A2.033,2.033,0,0,1,24.852,16,2.13,2.13,0,0,1,23,13.831V11a1,1,0,0,0-1-1H14a1,1,0,0,0-1,1v3a1.986,1.986,0,0,1-.587,1.413A2.033,2.033,0,0,1,10.852,16,2.13,2.13,0,0,1,9,13.831V11a1,1,0,0,0-1-1H6a6.006,6.006,0,0,0-6,6v6H64V16A6.006,6.006,0,0,0,58,10Z" style="fill:#e63b47"/><path d="M11,4A4,4,0,0,0,7,8v6a4,4,0,0,0,8,0V8A4,4,0,0,0,11,4Z" style="fill:#4aa4f2"/><path d="M25,4a4,4,0,0,0-4,4v6a4,4,0,0,0,8,0V8A4,4,0,0,0,25,4Z" style="fill:#4aa4f2"/><path d="M39,4a4,4,0,0,0-4,4v6a4,4,0,0,0,8,0V8A4,4,0,0,0,39,4Z" style="fill:#4aa4f2"/><path d="M53,4a4,4,0,0,0-4,4v6a4,4,0,0,0,8,0V8A4,4,0,0,0,53,4Z" style="fill:#4aa4f2"/><path d="M46.667,37.612a1,1,0,0,0-.807-.68l-8.957-1.3L32.9,27.513a1.039,1.039,0,0,0-1.792,0L27.1,35.629l-8.957,1.3a1,1,0,0,0-.555,1.7l6.482,6.318-1.53,8.921a1,1,0,0,0,1.451,1.054L32,50.718l8.012,4.212a1,1,0,0,0,1.451-1.054l-1.53-8.921,6.482-6.318A1,1,0,0,0,46.667,37.612Z" style="fill:#ffc170"/></g></svg>