<svg width="36" height="28" viewBox="0 0 36 28" fill="none" xmlns="http://www.w3.org/2000/svg">
<path d="M20.145 28C20.145 28 17.709 27.833 17.077 26.208C16.431 24.549 17.699 23.899 17.699 23.899C17.699 23.899 15.785 23.958 15.077 21.958C14.409 20.073 16.035 19.208 16.035 19.208C16.035 19.208 14.164 18.901 13.618 16.916C13.158 15.245 14.784 14 14.784 14H2.576C1.617 14 0.001 13.458 0 11.457C-0.002 9.457 1.659 9 2.576 9H23.076C24.076 9 24.076 8 23.076 8H20.41C16.618 8 14.267 5.962 13.618 5.249C12.968 4.536 12.638 3.582 12.884 2.429C13.299 0.473 14.804 0.9 16.081 1.454C19.159 2.791 23.545 3.708 25.619 3.987C31.477 4.778 35.994 9.796 36 15.871C36.004 22.497 30.702 27.995 24.076 28H20.145Z" fill="#FFDC5D"/>
</svg>
